<?xml version="1.0" encoding="utf-8"?>
<!-- Generator: Adobe Illustrator 27.5.0, SVG Export Plug-In . SVG Version: 6.00 Build 0)  -->
<svg version="1.1" xmlns="http://www.w3.org/2000/svg" xmlns:xlink="http://www.w3.org/1999/xlink" x="0px" y="0px"
	 viewBox="0 0 2200 2200" style="enable-background:new 0 0 2200 2200;" xml:space="preserve">
<g id="background">
	<rect style="fill:#FFFFFF;" width="2200" height="2200"/>
</g>
<g id="Objects">
	<g>
		<path style="fill:#FC7C7C;" d="M1818.639,697.539h-222.6c30.29-12.96,60.66-32.88,89.1-63.34c69.87-74.83,77.2-166.57,41-241.19
			c-26-53.6-63.87-81.93-100.3-94.62c-36.42-12.71-75.23-11.66-112.73-5.06c-115.69,20.36-239.68,133.04-318.15,255.1
			c-14.61-8.58-31.63-13.49-49.8-13.49h-50.48c-18.16,0-35.18,4.91-49.79,13.49c-78.47-122.06-202.46-234.74-318.15-255.1
			c-37.5-6.6-76.31-7.65-112.73,5.06c-36.43,12.69-74.3,41.02-100.3,94.62c-36.2,74.62-28.87,166.36,41,241.19
			c28.44,30.46,58.81,50.38,89.1,63.34h-230.17c-33.55,0-60.75,27.2-60.75,60.75v162.5c0,33.55,27.2,60.75,60.75,60.75h9.58v900.27
			c0,33.13,26.87,60,60,60h1265.84c33.13,0,60-26.87,60-60v-900.27h9.58c33.55,0,60.75-27.2,60.75-60.75v-162.5
			C1879.389,724.739,1852.189,697.539,1818.639,697.539z M996.109,633.509v64.03h-198.53c-158.87-27-163.87-128-127.87-170
			c52.24-60.96,157.94-29.3,216.47-0.8c42.32,20.61,79.18,48.42,114.2,78.01C997.599,613.849,996.109,623.499,996.109,633.509z
			 M1442.269,697.539h-198.53v-64.03c0-10.01-1.49-19.66-4.27-28.76c35.02-29.59,71.88-57.4,114.2-78.01
			c58.53-28.5,164.22-60.16,216.47,0.8C1606.139,569.539,1601.139,670.539,1442.269,697.539z"/>
		<path d="M1786.361,657.191H1604.23c20.156-12.692,38.879-28.243,55.941-46.516c34.52-36.971,56.258-80.563,62.862-126.062
			c6.193-42.664-0.783-86.344-20.175-126.317c-30.283-62.431-74.362-88.676-106.003-99.697
			c-33.572-11.716-72.09-13.504-117.758-5.467c-56.097,9.872-117.542,41.538-177.694,91.573
			c-52.066,43.31-102.274,99.983-142.133,160.307c-14.074-6.678-29.799-10.421-46.384-10.421h-50.48
			c-16.585,0-32.311,3.744-46.385,10.421c-39.858-60.324-90.066-116.997-142.134-160.308
			c-60.151-50.035-121.597-81.701-177.693-91.573c-45.668-8.037-84.187-6.249-117.754,5.465
			c-31.645,11.023-75.724,37.269-106.007,99.699c-19.393,39.974-26.369,83.654-20.176,126.317
			c6.605,45.499,28.343,89.091,62.863,126.062c17.061,18.273,35.784,33.824,55.941,46.516h-189.7
			c-39.012,0-70.75,31.738-70.75,70.75v162.5c0,38.871,31.512,70.511,70.33,70.739v318.141v275.189v296.95c0,38.598,31.402,70,70,70
			h495.32h275.2h495.32c38.598,0,70-31.402,70-70v-890.28c38.818-0.228,70.33-31.868,70.33-70.739v-162.5
			C1857.111,688.93,1825.373,657.191,1786.361,657.191z M1314.193,360.082c57.478-47.811,115.699-77.982,168.371-87.251
			c42.211-7.429,77.441-5.908,107.706,4.654c28.084,9.783,67.292,33.259,94.594,89.542c17.638,36.359,23.992,76.027,18.376,114.715
			c-6.016,41.444-25.964,81.309-57.688,115.286c-24.583,26.33-52.81,46.552-83.909,60.165h-80.271
			c11.87-5.161,22.623-11.048,32.202-17.649c22.931-15.805,38.66-35.166,46.751-57.545c11.425-31.602,5.588-67.445-14.87-91.313
			c-25.413-29.649-63.909-42.23-114.425-37.392c-47.622,4.561-91.876,23.328-114.018,34.109
			c-22.957,11.181-55.399,29.241-105.501,70.388c-7.859-17.013-19.993-31.66-35.018-42.558
			C1215.207,456.805,1263.822,401.982,1314.193,360.082z M1218.501,577.963c51.778-43.197,84.454-61.471,107.267-72.582
			c16.848-8.204,61.017-27.762,107.167-32.182c43.654-4.18,76.403,6.08,97.333,30.499c12.036,14.042,22.203,41.192,11.247,71.498
			c-14.724,40.727-61.738,69.826-132.411,81.995h-187.644v-54.024C1221.461,594.493,1220.432,586.055,1218.501,577.963z
			 M1112.886,514.592c48.841,0,88.575,39.735,88.575,88.575v54.024H973.83v-54.024c0-48.84,39.734-88.575,88.575-88.575H1112.886z
			 M1766.781,1279.321h-545.32v-318.13h545.32V1279.321z M946.261,657.191H766.186c-70.673-12.168-117.687-41.267-132.411-81.995
			c-10.956-30.305-0.789-57.456,11.247-71.498c20.931-24.419,53.676-34.677,97.333-30.499c46.15,4.42,90.318,23.978,107.166,32.182
			c22.814,11.11,55.491,29.384,107.268,72.582c-1.931,8.092-2.96,16.529-2.96,25.204v54.024H946.261z M529.739,597.026
			c-31.725-33.977-51.673-73.841-57.689-115.286c-5.616-38.688,0.738-78.356,18.377-114.715
			c27.301-56.282,66.509-79.758,94.598-89.543c30.26-10.559,65.49-12.081,107.702-4.652c52.671,9.27,110.893,39.44,168.37,87.251
			c50.373,41.901,98.987,96.724,137.701,155.15c-15.024,10.898-27.158,25.544-35.017,42.557
			c-50.103-41.147-82.544-59.208-105.503-70.388c-22.141-10.781-66.394-29.548-114.016-34.109
			c-50.514-4.835-89.011,7.743-114.425,37.392c-20.458,23.868-26.295,59.711-14.87,91.313c8.091,22.38,23.82,41.741,46.751,57.545
			c9.578,6.602,20.332,12.489,32.202,17.649h-80.271C582.55,643.579,554.322,623.356,529.739,597.026z M330.611,890.441v-162.5
			c0-27.983,22.766-50.75,50.75-50.75h564.9v264h-564.9C353.377,941.191,330.611,918.425,330.611,890.441z M400.941,961.191h545.32
			v318.13h-545.32V961.191z M450.941,1901.461c-27.57,0-50-22.43-50-50v-296.95h545.32v346.95H450.941z M966.261,1901.461v-366.95
			h-565.32v-235.189h565.32v-622.13h235.2v622.13h565.32v235.189h-565.32v366.95H966.261z M1716.781,1901.461h-495.32v-346.95
			h545.32v296.95C1766.781,1879.031,1744.352,1901.461,1716.781,1901.461z M1837.111,890.441c0,27.983-22.767,50.75-50.75,50.75
			h-564.9v-264h564.9c27.983,0,50.75,22.767,50.75,50.75V890.441z"/>
	</g>
</g>
</svg>
