<svg width="100%" height="100%" id="svg" viewBox="0 0 1440 590" xmlns="http://www.w3.org/2000/svg" class="transition duration-300 ease-in-out delay-150"><path d="M 0,600 L 0,150 C 90.04784688995213,127.57894736842104 180.09569377990425,105.1578947368421 276,96 C 371.90430622009575,86.8421052631579 473.665071770335,90.94736842105264 571,93 C 668.334928229665,95.05263157894736 761.2440191387559,95.05263157894736 861,104 C 960.7559808612441,112.94736842105264 1067.358851674641,130.8421052631579 1165,140 C 1262.641148325359,149.1578947368421 1351.3205741626793,149.57894736842104 1440,150 L 1440,600 L 0,600 Z" stroke="none" stroke-width="0" fill="#8ed1fc" fill-opacity="0.53" class="transition-all duration-300 ease-in-out delay-150 path-0"></path><path d="M 0,600 L 0,350 C 81.76076555023923,343.4066985645933 163.52153110047846,336.8133971291866 254,349 C 344.47846889952154,361.1866028708134 443.67464114832546,392.1531100478469 532,401 C 620.3253588516745,409.8468899521531 697.7799043062199,396.57416267942585 811,399 C 924.2200956937801,401.42583732057415 1073.2057416267942,419.55023923444975 1184,414 C 1294.7942583732058,408.44976076555025 1367.3971291866028,379.22488038277515 1440,350 L 1440,600 L 0,600 Z" stroke="none" stroke-width="0" fill="#8ed1fc" fill-opacity="1" class="transition-all duration-300 ease-in-out delay-150 path-1"></path></svg>